<?xml version="1.0" encoding="UTF-8"?>
<svg id="Capa_2" data-name="Capa 2" xmlns="http://www.w3.org/2000/svg" viewBox="0 0 190.86 186.58">
  <defs>
    
  </defs>
  <g id="Capa_1-2" data-name="Capa 1">
    <g>
      <polygon class="cls-1" points="103.34 86.54 112.1 74.58 180.44 62.6 190.86 78.82 168.13 143.76 163.35 124.71 103.34 86.54"></polygon>
      <polygon class="cls-1" points="108.61 105.73 122.69 110.37 155.21 171.65 142.99 186.58 74.22 185.03 90.85 174.6 108.61 105.73"></polygon>
      <polygon class="cls-1" points="91.99 116.67 91.93 131.5 43.69 181.35 25.72 174.35 5.94 108.47 21 121.06 91.99 116.67"></polygon>
      <polygon class="cls-1" points="76.44 104.24 62.32 108.77 0 78.3 1.1 59.04 57.66 19.87 50.34 38.09 76.44 104.24"></polygon>
      <polygon class="cls-1" points="83.46 85.62 74.79 73.59 84.51 4.9 103.17 0 157.9 41.68 138.31 40.35 83.46 85.62"></polygon>
    </g>
  </g>
</svg>