<?xml version="1.0" encoding="UTF-8"?>
<svg id="Capa_2" data-name="Capa 2" xmlns="http://www.w3.org/2000/svg" viewBox="0 0 246.99 68.72">
  <defs>
    
  </defs>
  <g id="Capa_1-2" data-name="Capa 1">
    <g>
      <g>
        <path class="cls-1" d="M106.76,26.34l3.28,4.92-8.3,25.05-6.61,4.92h-28.64l-5.69-8.56,7.12-21.42-3.28-4.92h42.12ZM94.21,53.14l6.25-18.65h-29.36l2.87,4.3-4.77,14.35h25Z"></path>
        <path class="cls-1" d="M152.41,26.34l3.28,4.92-3.84,11.68-6.61,4.92h-24.8l1.08-3.18,6.56-4.92h16.14l1.9-5.28h-29.36l2.87,4.3-7.48,22.44-5.69-8.56,7.12-21.42-3.28-4.92h42.12Z"></path>
        <path class="cls-1" d="M198.06,26.34l3.28,4.92-1.03,3.23h-37.91l2.87,4.3-.31.97h20.96l-1.08,3.18-6.56,4.92h-16.04l-1.74,5.28h33.56l-1.02,3.18-6.61,4.92h-28.64l-5.69-8.56,7.12-21.42-3.28-4.92h42.12Z"></path>
        <path class="cls-1" d="M243.71,26.34l3.28,4.92-8.35,25.05-6.56,4.92h-3.64l8.92-26.75h-29.31l2.87,4.3-7.48,22.44-5.69-8.56,7.12-21.42-3.28-4.92h42.12Z"></path>
      </g>
      <g>
        <polygon class="cls-1" points="68.63 0 42.69 0 44.71 3.06 41.34 13.21 33.84 7.51 27.73 9.11 24.54 31.65 27.38 35.59 45.37 20.74 51.8 21.18 45.53 16.41 49.32 5.02 64.75 5.02 63.58 8.27 53.64 8.27 49.6 11.3 48.94 13.25 64.24 13.25 68.28 10.22 70.68 3.06 68.63 0"></polygon>
        <polygon class="cls-1" points="70.84 0 72.86 3.06 68.47 16.25 71.97 21.52 89.64 21.52 93.68 18.46 94.34 16.5 73.65 16.5 74.72 13.25 84.59 13.25 88.63 10.22 89.3 8.27 76.39 8.27 77.5 5.02 98.16 5.02 98.82 3.06 96.81 0 70.84 0"></polygon>
        <polygon class="cls-1" points="127.12 3.06 125.11 0 99.14 0 101.16 3.06 100.5 5.02 111.29 5.02 107.53 16.31 110.97 21.52 116.55 5.02 126.46 5.02 127.12 3.06"></polygon>
        <polygon class="cls-1" points="153.25 0 151.01 0 145.52 16.5 130.09 16.5 135.58 0 127.28 0 129.3 3.06 124.91 16.25 128.42 21.52 146.09 21.52 150.12 18.46 155.27 3.06 153.25 0"></polygon>
        <polygon class="cls-1" points="181.36 0 155.43 0 157.44 3.06 153.06 16.25 156.56 21.52 162.05 5.02 177.48 5.02 171.99 21.52 174.23 21.52 178.27 18.46 183.41 3.06 181.36 0"></polygon>
        <polygon class="cls-1" points="188.87 0 183.57 0 185.59 3.06 181.2 16.25 184.8 21.52 190.89 3.06 188.87 0"></polygon>
        <path class="cls-1" d="M216.98,0h-25.94l2.02,3.06-4.39,13.19,3.5,5.27,2.75-8.27h15.43l-2.74,8.27h2.21l4.07-3.06,5.14-15.4-2.05-3.06ZM212.03,8.27h-15.43l1.07-3.25h15.43l-1.07,3.25Z"></path>
        <polygon class="cls-1" points="246.32 5.02 246.99 3.06 244.97 0 219 0 221.05 3.06 217.64 13.25 238.31 13.25 237.24 16.5 216.82 16.5 220.17 21.52 237.81 21.52 241.84 18.46 245.25 8.27 224.59 8.27 225.66 5.02 246.32 5.02"></polygon>
        <polygon class="cls-1" points="35.63 42.19 29.8 64.79 24.35 68.21 46.91 68.72 50.92 63.82 40.25 43.71 35.63 42.19"></polygon>
        <polygon class="cls-1" points="30.18 45.78 6.89 47.22 1.95 43.09 8.44 64.71 14.33 67 30.16 50.65 30.18 45.78"></polygon>
        <polygon class="cls-1" points="25.08 41.71 16.51 20 18.91 14.03 .36 26.88 0 33.19 20.45 43.19 25.08 41.71"></polygon>
        <polygon class="cls-1" points="36.78 31.97 33.9 35.9 53.59 48.42 55.16 54.67 62.61 33.37 59.19 28.04 36.78 31.97"></polygon>
      </g>
    </g>
  </g>
</svg>